<svg xmlns="http://www.w3.org/2000/svg" viewBox="0 0 800 1000" preserveAspectRatio="xMidYMid slice">
  <defs>
    <linearGradient id="mf" x1="0" y1="0" x2="0" y2="1">
      <stop offset="0%" stop-color="#6b7f78" stop-opacity="0.5"/>
      <stop offset="100%" stop-color="#8a9a94" stop-opacity="0.3"/>
    </linearGradient>
    <linearGradient id="mm" x1="0" y1="0" x2="0" y2="1">
      <stop offset="0%" stop-color="#3d5c52" stop-opacity="0.75"/>
      <stop offset="100%" stop-color="#4a5f58" stop-opacity="0.55"/>
    </linearGradient>
    <linearGradient id="mn" x1="0" y1="0" x2="0" y2="1">
      <stop offset="0%" stop-color="#1a1814" stop-opacity="0.85"/>
      <stop offset="100%" stop-color="#2a2620" stop-opacity="0.7"/>
    </linearGradient>
    <linearGradient id="sky-fade" x1="0" y1="0" x2="0" y2="1">
      <stop offset="0%" stop-color="#f6f1e8" stop-opacity="0.92"/>
      <stop offset="35%" stop-color="#f6f1e8" stop-opacity="0.4"/>
      <stop offset="60%" stop-color="#f6f1e8" stop-opacity="0"/>
    </linearGradient>
    <radialGradient id="ink1" cx="75%" cy="20%" r="40%">
      <stop offset="0%" stop-color="#2a2620" stop-opacity="0.15"/>
      <stop offset="100%" stop-color="#f6f1e8" stop-opacity="0"/>
    </radialGradient>
    <radialGradient id="ink2" cx="15%" cy="30%" r="35%">
      <stop offset="0%" stop-color="#3d5c52" stop-opacity="0.12"/>
      <stop offset="100%" stop-color="#f6f1e8" stop-opacity="0"/>
    </radialGradient>
  </defs>

  <rect width="800" height="1000" fill="url(#ink1)"/>
  <rect width="800" height="1000" fill="url(#ink2)"/>

  <!-- ?? -->
  <path d="M0,520 C100,420 200,460 320,400 C440,340 540,380 660,350 C720,335 760,345 800,330 L800,1000 L0,1000 Z" fill="url(#mf)"/>

  <!-- ?? -->
  <path d="M0,620 C90,540 200,580 300,520 C400,460 520,500 620,470 C700,450 750,465 800,445 L800,1000 L0,1000 Z" fill="url(#mm)"/>

  <!-- ?? -->
  <path d="M0,720 C110,640 220,680 340,620 C440,570 540,610 660,580 C730,560 770,575 800,560 L800,1000 L0,1000 Z" fill="url(#mn)"/>

  <!-- ?? -->
  <g opacity="0.55">
    <path d="M90,280 Q85,420 88,560 Q90,680 82,800" stroke="#1a1814" stroke-width="3" fill="none" stroke-linecap="round"/>
    <path d="M90,380 Q55,395 38,420 M90,480 Q50,500 32,525 M90,580 Q60,600 45,625" stroke="#1a1814" stroke-width="1.5" fill="none"/>
    <path d="M100,440 Q140,455 158,478 M100,530 Q145,545 165,568" stroke="#1a1814" stroke-width="1.2" fill="none"/>
  </g>

  <!-- ?? -->
  <g opacity="0.5">
    <path d="M710,300 Q705,440 698,580 Q692,720 685,850" stroke="#1a1814" stroke-width="2.5" fill="none" stroke-linecap="round"/>
    <path d="M698,400 Q660,385 638,360 M698,500 Q655,480 632,455 M698,600 Q662,580 640,555" stroke="#1a1814" stroke-width="1.3" fill="none"/>
  </g>

  <!-- ?? -->
  <path d="M0,780 Q200,770 400,785 T800,775 L800,1000 L0,1000 Z" fill="#2a4038" opacity="0.25"/>

  <!-- ?? -->
  <g transform="translate(460, 755)" opacity="0.65">
    <ellipse cx="0" cy="10" rx="32" ry="5" fill="#1a1814"/>
    <path d="M-24,10 Q0,-4 24,10" stroke="#1a1814" stroke-width="2" fill="none"/>
    <line x1="0" y1="-4" x2="0" y2="-42" stroke="#1a1814" stroke-width="1.2"/>
    <path d="M0,-42 L20,-32" stroke="#1a1814" stroke-width="1" fill="none"/>
  </g>

  <!-- ??????????????? -->
  <rect width="800" height="1000" fill="url(#sky-fade)"/>
</svg>
